<svg xmlns="http://www.w3.org/2000/svg" width="48" height="48" viewBox="0 0 48 48">
    <g fill="none" fill-rule="evenodd">
        <path fill="#0061AA" d="M14.04 0L0 14.03v19.858l14.04 14.03h19.838l14.04-14.03V14.03L33.878 0z"/>
        <path fill="#FFF" d="M36.482 19.563v12.154h-3.383V19.563h-4.574v-3.318h12.57v3.318z"/>
        <path fill="#FFF" d="M36.482 19.563v12.154h-3.383V19.563h-4.574v-3.318h12.57v3.318zM14.732 23.428l-1.797 3.489h3.573l-1.776-3.49zm4.23 8.289l-.804-1.586h-6.852l-.824 1.586H6.823l7.91-15.48 7.887 15.48H18.96z"/>
        <path fill="#FFF" d="M24.579 28.313h-1.877v-8.73h1.877c2.575 0 4.408 1.768 4.408 4.365 0 2.597-1.833 4.365-4.408 4.365m6.873-8.146h-3.53v-3.274a8.2 8.2 0 0 0-3.343-.692h-5.26v7.708l3.839 7.534.14.274h1.28c4.452 0 7.791-3.295 7.791-7.769 0-1.396-.329-2.678-.917-3.781"/>
    </g>
</svg>
